<?xml version="1.0" encoding="utf-8"?>
<!-- Generator: Adobe Illustrator 19.0.0, SVG Export Plug-In . SVG Version: 6.00 Build 0)  -->
<svg version="1.1" id="Layer_1" xmlns="http://www.w3.org/2000/svg" xmlns:xlink="http://www.w3.org/1999/xlink" x="0px" y="0px"
	 viewBox="0 0 86.8 94" style="enable-background:new 0 0 86.8 94;" xml:space="preserve">
<style type="text/css">
	.st0{fill:#5CC4CA;}
</style>
<g>
	<path class="st0" d="M86,31.2c-0.5-4.8-4.1-11.1-7.9-14c0,0-5.8-4.3-13-8.5c-7.2-4.3-13.8-7.2-13.8-7.2c-2.2-1-5.1-1.5-7.9-1.5
		c-2.9,0-5.8,0.5-7.9,1.5c0,0-6.5,2.9-13.8,7.2c-7.2,4.3-13,8.5-13,8.5c-3.9,2.9-7.4,9.2-7.9,14c0,0-0.8,7.2-0.8,15.8
		c0,8.5,0.8,15.8,0.8,15.8c0.5,4.8,4.1,11.1,7.9,14c0,0,5.8,4.3,13,8.6c7.2,4.3,13.8,7.2,13.8,7.2c2.2,1,5.1,1.5,7.9,1.5
		c2.9,0,5.8-0.5,7.9-1.5c0,0,6.5-2.9,13.8-7.2c7.2-4.3,13-8.6,13-8.6c3.9-2.9,7.4-9.2,7.9-14c0,0,0.8-7.2,0.8-15.8
		C86.8,38.5,86,31.2,86,31.2z M82,62.3c-0.4,3.8-3.4,9-6.3,11.2c-0.1,0-5.7,4.2-12.6,8.3c-6.9,4.1-13.3,7-13.4,7
		c-1.6,0.7-3.9,1.1-6.3,1.1s-4.7-0.4-6.3-1.1c-0.1,0-6.4-2.9-13.4-7c-6.9-4.1-12.6-8.3-12.6-8.3c-3-2.2-5.9-7.5-6.3-11.2
		C4.7,62.3,4,55.2,4,47c0-8.2,0.7-15.3,0.7-15.3c0.4-3.8,3.4-9,6.3-11.2c0.1,0,5.7-4.2,12.6-8.3c6.9-4.1,13.3-7,13.4-7
		C38.7,4.4,41,4,43.4,4s4.7,0.4,6.3,1.1c0.1,0,6.4,2.9,13.4,7c6.9,4.1,12.6,8.3,12.6,8.3c3,2.2,5.9,7.5,6.3,11.2
		c0,0.1,0.7,7.1,0.7,15.3C82.8,55.2,82,62.3,82,62.3z"/>
	<path class="st0" d="M45.6,29.4c-0.3-0.2-0.7-0.4-1.1-0.4c-1,0-6-0.4-6-6c0-2.9,3.1-6,6-6c2.9,0,5,2.1,5,4c0,1.9-1.2,3-2,3
		c-0.9,0-1.6-0.2-1.9-0.5c-0.2-0.3-0.2-0.9-0.2-1c0.3-1.1-0.4-2.2-1.5-2.4c-1.1-0.3-2.2,0.4-2.4,1.5c-0.1,0.3-0.6,2.6,0.9,4.4
		c1.1,1.4,2.8,2,5.1,2c3.3,0,6-3.1,6-7c0-4.3-4.1-8-9-8c-5.1,0-10,4.9-10,10c0,3.3,1.1,5.6,2.7,7.1c-9.4,2.7-16.3,11.4-16.3,21.6
		c0,12.4,10.1,22.5,22.5,22.5c12.4,0,22.5-10.1,22.5-22.5C65.9,40.1,57,30.5,45.6,29.4z M43.4,70.2c-10.2,0-18.5-8.3-18.5-18.5
		c0-10.2,8.3-18.5,18.5-18.5s18.5,8.3,18.5,18.5C61.9,62,53.6,70.2,43.4,70.2z"/>
	<circle class="st0" cx="35.9" cy="47.5" r="3.5"/>
	<circle class="st0" cx="50.9" cy="47.5" r="3.5"/>
	<path class="st0" d="M53.3,54.8c-1-0.5-2.2-0.1-2.7,0.8c-1.4,2.7-4.2,4.4-7.2,4.4c-3,0-5.8-1.7-7.2-4.4c-0.5-1-1.7-1.4-2.7-0.8
		c-1,0.5-1.4,1.7-0.8,2.7c2.1,4,6.2,6.5,10.7,6.5s8.6-2.5,10.7-6.5C54.6,56.5,54.3,55.3,53.3,54.8z"/>
</g>
</svg>
