<?xml version="1.0" encoding="utf-8"?>
<!-- Generator: Adobe Illustrator 19.0.0, SVG Export Plug-In . SVG Version: 6.00 Build 0)  -->
<svg version="1.1" id="Layer_1" xmlns="http://www.w3.org/2000/svg" xmlns:xlink="http://www.w3.org/1999/xlink" x="0px" y="0px"
	 viewBox="0 0 86.8 94" style="enable-background:new 0 0 86.8 94;" xml:space="preserve">
<style type="text/css">
	.st0{fill:#5CC4CA;}
	.st1{clip-path:url(#XMLID_445_);fill:#5CC4CA;}
	.st2{clip-path:url(#XMLID_446_);fill:#5CC4CA;}
	.st3{fill:none;stroke:#5CC4CA;stroke-width:4;stroke-linecap:round;stroke-miterlimit:10;}
</style>
<path id="XMLID_416_" class="st0" d="M86,31.2c-0.5-4.8-4.1-11.1-7.9-14c0,0-5.8-4.3-13-8.5c-7.2-4.3-13.8-7.2-13.8-7.2
	c-2.2-1-5.1-1.5-7.9-1.5c-2.9,0-5.8,0.5-7.9,1.5c0,0-6.5,2.9-13.8,7.2c-7.2,4.3-13,8.5-13,8.5c-3.9,2.9-7.4,9.2-7.9,14
	c0,0-0.8,7.2-0.8,15.8c0,8.5,0.8,15.8,0.8,15.8c0.5,4.8,4.1,11.1,7.9,14c0,0,5.8,4.3,13,8.6c7.2,4.3,13.8,7.2,13.8,7.2
	c2.2,1,5.1,1.5,7.9,1.5c2.9,0,5.8-0.5,7.9-1.5c0,0,6.5-2.9,13.8-7.2c7.2-4.3,13-8.6,13-8.6c3.9-2.9,7.4-9.2,7.9-14
	c0,0,0.8-7.2,0.8-15.8C86.8,38.5,86,31.2,86,31.2z M82,62.3c-0.4,3.8-3.4,9-6.3,11.2c-0.1,0-5.7,4.2-12.6,8.3
	c-6.9,4.1-13.3,7-13.4,7c-1.6,0.7-3.9,1.1-6.3,1.1s-4.7-0.4-6.3-1.1c-0.1,0-6.4-2.9-13.4-7c-6.9-4.1-12.6-8.3-12.6-8.3
	c-3-2.2-5.9-7.5-6.3-11.2C4.7,62.3,4,55.2,4,47c0-8.2,0.7-15.3,0.7-15.3c0.4-3.8,3.4-9,6.3-11.2c0.1,0,5.7-4.2,12.6-8.3
	c6.9-4.1,13.3-7,13.4-7C38.7,4.4,41,4,43.4,4s4.7,0.4,6.3,1.1c0.1,0,6.4,2.9,13.4,7c6.9,4.1,12.6,8.3,12.6,8.3
	c3,2.2,5.9,7.5,6.3,11.2c0,0.1,0.7,7.1,0.7,15.3C82.8,55.2,82,62.3,82,62.3z"/>
<g id="XMLID_412_">
	<g id="XMLID_413_">
		<defs>
			<path id="XMLID_414_" d="M33.2,53h19.1c1.1,0,2-0.9,2-2c0-1.1-0.9-2-2-2H33.2c-1.1,0-2,0.9-2,2C31.2,52.1,32.1,53,33.2,53"/>
		</defs>
		<use xlink:href="#XMLID_414_"  style="overflow:visible;fill-rule:evenodd;clip-rule:evenodd;fill:#5CC4CA;"/>
		<clipPath id="XMLID_445_">
			<use xlink:href="#XMLID_414_"  style="overflow:visible;"/>
		</clipPath>
		<rect id="XMLID_415_" x="24.9" y="42.7" class="st1" width="35.7" height="16.6"/>
	</g>
</g>
<g id="XMLID_383_">
	<g id="XMLID_384_">
		<defs>
			<path id="XMLID_410_" d="M54.3,59c0-1.1-0.9-2-2-2H33.2c-1.1,0-2,0.9-2,2s0.9,2,2,2h19.1C53.4,61,54.3,60.1,54.3,59"/>
		</defs>
		<use xlink:href="#XMLID_410_"  style="overflow:visible;fill-rule:evenodd;clip-rule:evenodd;fill:#5CC4CA;"/>
		<clipPath id="XMLID_446_">
			<use xlink:href="#XMLID_410_"  style="overflow:visible;"/>
		</clipPath>
		<rect id="XMLID_411_" x="24.9" y="50.7" class="st2" width="35.7" height="16.6"/>
	</g>
</g>
<path id="XMLID_382_" class="st3" d="M59.7,67.8H26.2c-0.6,0-1-0.5-1-1V27.2c0-0.6,0.4-1,1-1h33.5c0.6,0,1,0.4,1,1v39.5
	C60.7,67.3,60.3,67.8,59.7,67.8z"/>
<line id="XMLID_381_" class="st3" x1="36.9" y1="34" x2="36.9" y2="42"/>
<line id="XMLID_380_" class="st3" x1="32.9" y1="38" x2="40.9" y2="38"/>
</svg>
