<?xml version="1.0" encoding="utf-8"?>
<!-- Generator: Adobe Illustrator 19.0.0, SVG Export Plug-In . SVG Version: 6.00 Build 0)  -->
<svg version="1.1" id="Layer_1" xmlns="http://www.w3.org/2000/svg" xmlns:xlink="http://www.w3.org/1999/xlink" x="0px" y="0px"
	 viewBox="0 0 86.8 94" style="enable-background:new 0 0 86.8 94;" xml:space="preserve">
<style type="text/css">
	.st0{fill:#F28230;}
	.st1{fill:none;stroke:#F28230;stroke-width:4;stroke-miterlimit:10;}
	.st2{fill:none;stroke:#F28230;stroke-width:4;stroke-linecap:round;stroke-miterlimit:10;}
</style>
<g>
	<path class="st0" d="M86.1,31.1c-0.5-4.8-4.1-11.1-7.9-14c0,0-5.8-4.3-13-8.5c-7.2-4.3-13.8-7.2-13.8-7.2c-2.2-1-5.1-1.5-7.9-1.5
		c-2.9,0-5.8,0.5-7.9,1.5c0,0-6.5,2.9-13.8,7.2c-7.2,4.3-13,8.5-13,8.5c-3.9,2.9-7.4,9.2-7.9,14c0,0-0.8,7.2-0.8,15.8
		c0,8.5,0.8,15.8,0.8,15.8c0.5,4.8,4.1,11.1,7.9,14c0,0,5.8,4.3,13,8.6c7.2,4.3,13.8,7.2,13.8,7.2c2.2,1,5.1,1.5,7.9,1.5
		c2.9,0,5.8-0.5,7.9-1.5c0,0,6.5-2.9,13.8-7.2c7.2-4.3,13-8.6,13-8.6c3.9-2.9,7.4-9.2,7.9-14c0,0,0.8-7.2,0.8-15.8
		C86.8,38.4,86.1,31.1,86.1,31.1z M82.1,62.2c-0.4,3.8-3.4,9-6.3,11.2c-0.1,0-5.7,4.2-12.6,8.3c-6.9,4.1-13.3,7-13.4,7
		c-1.6,0.7-3.9,1.1-6.3,1.1s-4.7-0.4-6.3-1.1c-0.1,0-6.4-2.9-13.4-7c-6.9-4.1-12.6-8.3-12.6-8.3c-3-2.2-5.9-7.5-6.3-11.2
		c0-0.1-0.7-7.1-0.7-15.3c0-8.2,0.7-15.3,0.7-15.3c0.4-3.8,3.4-9,6.3-11.2c0.1,0,5.7-4.2,12.6-8.3c6.9-4.1,13.3-7,13.4-7
		c1.6-0.7,3.9-1.1,6.3-1.1s4.7,0.4,6.3,1.1c0.1,0,6.4,2.9,13.4,7c6.9,4.1,12.6,8.3,12.6,8.3c3,2.2,5.9,7.5,6.3,11.2
		c0,0.1,0.7,7.1,0.7,15.3C82.8,55.1,82.1,62.1,82.1,62.2z"/>
	<path class="st1" d="M44.4,34H60c0.5,0,1,0.4,1,0.9v32.7c0,0.5-0.5,0.9-1,0.9H28.9c-0.5,0-1-0.4-1-0.9V29.5"/>
	<path class="st2" d="M55.9,33.7L34.1,34c-3.4,0-6.2-2.7-6.3-6.1v0c0-3.4,2.7-6.2,6.1-6.3l21.7-0.3"/>
	<line class="st2" x1="44.4" y1="44.3" x2="44.4" y2="56.7"/>
	<line class="st2" x1="38.3" y1="50.5" x2="50.6" y2="50.5"/>
	<line class="st2" x1="55.8" y1="21.4" x2="55.8" y2="34"/>
	<line class="st2" x1="49.6" y1="28" x2="35.3" y2="28"/>
</g>
</svg>
