<?xml version="1.0" encoding="utf-8"?>
<!-- Generator: Adobe Illustrator 19.0.0, SVG Export Plug-In . SVG Version: 6.00 Build 0)  -->
<svg version="1.1" id="Layer_1" xmlns="http://www.w3.org/2000/svg" xmlns:xlink="http://www.w3.org/1999/xlink" x="0px" y="0px"
	 viewBox="0 0 86.8 94" style="enable-background:new 0 0 86.8 94;" xml:space="preserve">
<style type="text/css">
	.st0{fill:#5CC4CA;}
</style>
<path id="XMLID_382_" class="st0" d="M86,31.2c-0.5-4.8-4.1-11.1-7.9-14c0,0-5.8-4.3-13-8.5c-7.2-4.3-13.8-7.2-13.8-7.2
	c-2.2-1-5.1-1.5-7.9-1.5c-2.9,0-5.8,0.5-7.9,1.5c0,0-6.5,2.9-13.8,7.2c-7.2,4.3-13,8.5-13,8.5c-3.9,2.9-7.4,9.2-7.9,14
	c0,0-0.8,7.2-0.8,15.8c0,8.5,0.8,15.8,0.8,15.8c0.5,4.8,4.1,11.1,7.9,14c0,0,5.8,4.3,13,8.6c7.2,4.3,13.8,7.2,13.8,7.2
	c2.2,1,5.1,1.5,7.9,1.5c2.9,0,5.8-0.5,7.9-1.5c0,0,6.5-2.9,13.8-7.2c7.2-4.3,13-8.6,13-8.6c3.9-2.9,7.4-9.2,7.9-14
	c0,0,0.8-7.2,0.8-15.8C86.8,38.5,86,31.2,86,31.2z M82,62.3c-0.4,3.8-3.4,9-6.3,11.2c-0.1,0-5.7,4.2-12.6,8.3
	c-6.9,4.1-13.3,7-13.4,7c-1.6,0.7-3.9,1.1-6.3,1.1s-4.7-0.4-6.3-1.1c-0.1,0-6.4-2.9-13.4-7c-6.9-4.1-12.6-8.3-12.6-8.3
	c-3-2.2-5.9-7.5-6.3-11.2C4.7,62.3,4,55.2,4,47c0-8.2,0.7-15.3,0.7-15.3c0.4-3.8,3.4-9,6.3-11.2c0.1,0,5.7-4.2,12.6-8.3
	c6.9-4.1,13.3-7,13.4-7C38.7,4.4,41,4,43.4,4s4.7,0.4,6.3,1.1c0.1,0,6.4,2.9,13.4,7c6.9,4.1,12.6,8.3,12.6,8.3
	c3,2.2,5.9,7.5,6.3,11.2c0,0.1,0.7,7.1,0.7,15.3C82.8,55.2,82,62.3,82,62.3z"/>
<path id="XMLID_379_" class="st0" d="M62.9,36.6h-8.6V28c0-2.2-1.8-4-4-4H37.6c-2.2,0-4,1.8-4,4v8.6H25c-2.2,0-4,1.8-4,4v12.6
	c0,2.2,1.8,4,4,4h8.6v8.6c0,2.2,1.8,4,4,4h12.6c2.2,0,4-1.8,4-4v-8.6h8.6c2.2,0,4-1.8,4-4V40.6C66.9,38.4,65.1,36.6,62.9,36.6z
	 M62.9,53.2H50.2v12.6H37.6V53.2H25V40.6h12.6V28h12.6v12.6h12.6V53.2z"/>
</svg>
