<?xml version="1.0" encoding="utf-8"?>
<!-- Generator: Adobe Illustrator 19.0.0, SVG Export Plug-In . SVG Version: 6.00 Build 0)  -->
<svg version="1.1" id="Layer_1" xmlns="http://www.w3.org/2000/svg" xmlns:xlink="http://www.w3.org/1999/xlink" x="0px" y="0px"
	 viewBox="0 0 86.8 94" style="enable-background:new 0 0 86.8 94;" xml:space="preserve">
<style type="text/css">
	.st0{fill:#65B94D;}
</style>
<g>
	<path class="st0" d="M86,31.2c-0.5-4.8-4.1-11.1-7.9-14c0,0-5.8-4.3-13-8.5c-7.2-4.3-13.8-7.2-13.8-7.2c-2.2-1-5.1-1.5-7.9-1.5
		c-2.9,0-5.8,0.5-7.9,1.5c0,0-6.5,2.9-13.8,7.2c-7.2,4.3-13,8.5-13,8.5c-3.9,2.9-7.4,9.2-7.9,14c0,0-0.8,7.2-0.8,15.8
		c0,8.5,0.8,15.8,0.8,15.8c0.5,4.8,4.1,11.1,7.9,14c0,0,5.8,4.3,13,8.6c7.2,4.3,13.8,7.2,13.8,7.2c2.2,1,5.1,1.5,7.9,1.5
		c2.9,0,5.8-0.5,7.9-1.5c0,0,6.5-2.9,13.8-7.2c7.2-4.3,13-8.6,13-8.6c3.9-2.9,7.4-9.2,7.9-14c0,0,0.8-7.2,0.8-15.8
		C86.8,38.5,86,31.2,86,31.2z M82,62.3c-0.4,3.8-3.4,9-6.3,11.2c-0.1,0-5.7,4.2-12.6,8.3c-6.9,4.1-13.3,7-13.4,7
		c-1.6,0.7-3.9,1.1-6.3,1.1s-4.7-0.4-6.3-1.1c-0.1,0-6.4-2.9-13.4-7c-6.9-4.1-12.6-8.3-12.6-8.3c-3-2.2-5.9-7.5-6.3-11.2
		C4.7,62.3,4,55.2,4,47c0-8.2,0.7-15.3,0.7-15.3c0.4-3.8,3.4-9,6.3-11.2c0.1,0,5.7-4.2,12.6-8.3c6.9-4.1,13.3-7,13.4-7
		C38.7,4.4,41,4,43.4,4s4.7,0.4,6.3,1.1c0.1,0,6.4,2.9,13.4,7c6.9,4.1,12.6,8.3,12.6,8.3c3,2.2,5.9,7.5,6.3,11.2
		c0,0.1,0.7,7.1,0.7,15.3C82.8,55.2,82,62.3,82,62.3z"/>
	<path class="st0" d="M55.3,21.6c-5.2-0.4-10.5,1.2-14.3,4.4c-1.4-0.3-2.5-0.1-4.3,1.4c-2.5,2.2-3.2,4.7-2.6,6.3
		c0.3,0.8,1.4,1.6,2.2,1.6c1.5,0,2.7-0.2,4.3-1.5c1.4-1.1,3.3-3.4,3.2-5c3-2.3,7.1-3.6,11.2-3.2c2.9,0.2,7,1.4,10,5.5
		c2.3,3.1,3.1,7.5,2.1,12.1c-1,4.9-3.8,9-7.5,11.1c-6,3.4-12.6,3.5-17.5,3.4v-1.2c9.7-0.5,18.1-7.3,20.5-16.9c0.1-0.6,0-1.2-0.4-1.7
		c-0.4-0.5-1-0.8-1.6-0.8h-41c-0.6,0-1.2,0.3-1.6,0.8c-0.4,0.5-0.5,1.1-0.4,1.7C20,49.3,28.3,56.1,38,56.6v1.2
		c-4.4,0.1-8.2,0.6-8.2,4.4c0,4.6,3.2,4.9,8.2,5v0.7h-4.2c-1.1,0-2,0.9-2,2c0,1.1,0.9,2,2,2h12.5c1.1,0,2-0.9,2-2c0-1.1-0.9-2-2-2
		H42v-6c5.1,0,12.6,0,19.5-3.9c4.7-2.6,8.2-7.8,9.4-13.8c1.2-5.7,0.2-11.3-2.8-15.3C65.1,24.6,60.5,22.1,55.3,21.6z M22.3,41.3h35.5
		c-2.8,6.8-9.4,11.4-17,11.4h-1.6C31.7,52.7,25.1,48.1,22.3,41.3z M33.9,62.8c-0.1-0.1-0.2-0.3-0.1-0.6c0.3-0.5,2-0.4,4.2-0.4v1.3
		C36.1,63.1,34.3,63.2,33.9,62.8z"/>
</g>
</svg>
